<?xml version="1.0" encoding="utf-8"?>
<!-- Generator: Adobe Illustrator 18.1.0, SVG Export Plug-In . SVG Version: 6.00 Build 0)  -->
<!DOCTYPE svg PUBLIC "-//W3C//DTD SVG 1.1//EN" "http://www.w3.org/Graphics/SVG/1.1/DTD/svg11.dtd">
<svg version="1.1" id="Layer_1" xmlns="http://www.w3.org/2000/svg" xmlns:xlink="http://www.w3.org/1999/xlink" x="0px" y="0px"
	 viewBox="-293 385 24 24" enable-background="new -293 385 24 24" xml:space="preserve">
<g>
	<g>
		<path fill="#FFFFFF" stroke="#FFFFFF" stroke-miterlimit="10" d="M-269.8,402h-22.5c-0.4,0-0.8,0.4-0.8,0.8v3.4
			c0,0.4,0.3,0.8,0.8,0.8h22.5c0.4,0,0.8-0.3,0.8-0.8v-3.4C-269,402.4-269.3,402-269.8,402z M-269.8,394h-22.5
			c-0.4,0-0.8,0.4-0.8,0.8v3.4c0,0.4,0.3,0.8,0.8,0.8h22.5c0.4,0,0.8-0.3,0.8-0.8v-3.4C-269,394.4-269.3,394-269.8,394z M-269.8,386
			h-22.5c-0.4,0-0.8,0.4-0.8,0.8v3.4c0,0.4,0.3,0.8,0.8,0.8h22.5c0.4,0,0.8-0.3,0.8-0.8v-3.4C-269,386.4-269.3,386-269.8,386z"/>
	</g>
</g>
</svg>
